# xmcd
#
# Track frame offsets:
#	182
#	10322
#	21260
#	32662
#	44397
#	54185
#	67347
#	80655
#	91212
#	104505
#	115045
#	126115
#	139337
#	150035
#	161540
#	177035
#
# Disc length: 2575 seconds
#
# Revision: 1
# Processed by: cddbd v1.5.2PL0 Copyright (c) Steve Scherf et al.
# Submitted via: EZCDAudioConverter 3.0.8.1
#
DISCID=c80a0d10
DTITLE=Ben E. King - The Very Best of Ben E. King
DYEAR=1998
DGENRE=R&B
TTITLE0=There Goes My Baby
TTITLE1=Dance With Me
TTITLE2=This Magic Moment
TTITLE3=Save the Last Dance for Me
TTITLE4=I Count the Tears
TTITLE5=Spanish Harlem
TTITLE6=Stand by Me
TTITLE7=On the Horizon
TTITLE8=Amor
TTITLE9=Young Boy Blues
TTITLE10=Here Comes the Night
TTITLE11=Don't Play That Song (You Lied)
TTITLE12=How Can I Forget
TTITLE13=I (Who Have Nothing)
TTITLE14=Supernatural Thing, Pt. 1
TTITLE15=Do It in the Name of Love
EXTD=
EXTT0=
EXTT1=
EXTT2=
EXTT3=
EXTT4=
EXTT5=
EXTT6=
EXTT7=
EXTT8=
EXTT9=
EXTT10=
EXTT11=
EXTT12=
EXTT13=
EXTT14=
EXTT15=
PLAYORDER=
